<?xml version="1.0" encoding="UTF-8"?>
<!-- Generator: Adobe Illustrator 25.2.0, SVG Export Plug-In . SVG Version: 6.00 Build 0)  -->
<svg version="1.1" id="Camada_1" xmlns="http://www.w3.org/2000/svg" xmlns:xlink="http://www.w3.org/1999/xlink" x="0px" y="0px" viewBox="0 0 286 100" style="enable-background:new 0 0 286 100;" xml:space="preserve">
<style type="text/css">
	.st0{display:none;fill:#1F323D;}
	.st1{display:none;opacity:0.1;fill:#1C9A9A;}
	.st2{opacity:0.15;fill:#1C9A9A;}
	.st3{fill:#BEC1CE;}
	.st4{fill:#1C9A9A;}
</style>
<rect x="-109.74" y="-73.82" class="st0" width="595.28" height="259.93"/>
<circle class="st1" cx="106.82" cy="110.82" r="50"/>
<path class="st2" d="M175.29,100H50C22.39,100,0,77.61,0,50v0C0,22.39,22.39,0,50,0l125.29,0V100z"/>
<g>
	<path class="st3" d="M205.45,49.86h7.4v14.2c-1.9,1.43-4.1,2.53-6.6,3.3c-2.5,0.77-5.02,1.15-7.55,1.15c-3.63,0-6.9-0.77-9.8-2.33   c-2.9-1.55-5.17-3.7-6.83-6.45c-1.65-2.75-2.47-5.86-2.47-9.33c0-3.47,0.82-6.58,2.47-9.33c1.65-2.75,3.94-4.9,6.88-6.45   c2.93-1.55,6.23-2.33,9.9-2.33c3.07,0,5.85,0.52,8.35,1.55s4.6,2.53,6.3,4.5l-5.2,4.8c-2.5-2.63-5.52-3.95-9.05-3.95   c-2.23,0-4.22,0.47-5.95,1.4c-1.73,0.93-3.08,2.25-4.05,3.95c-0.97,1.7-1.45,3.65-1.45,5.85c0,2.17,0.48,4.1,1.45,5.8   c0.97,1.7,2.31,3.03,4.02,3.98c1.72,0.95,3.67,1.43,5.88,1.43c2.33,0,4.43-0.5,6.3-1.5V49.86z"/>
	<path class="st3" d="M247.45,61.41v6.5h-27.1v-35h26.45v6.5h-18.4v7.6h16.25v6.3H228.4v8.1H247.45z"/>
	<path class="st3" d="M286,32.91v35h-6.65L261.9,46.66v21.25h-8v-35h6.7L278,54.16V32.91H286z"/>
</g>
<g>
	<path class="st4" d="M98.95,32.91v35H92.3L74.85,46.66v21.25h-8v-35h6.7l17.4,21.25V32.91H98.95z"/>
	<path class="st4" d="M134.35,61.41v6.5h-27.1v-35h26.45v6.5h-18.4v7.6h16.25v6.3H115.3v8.1H134.35z"/>
	<path class="st4" d="M162.5,67.91l-8.45-12.15l-8.3,12.15h-9.3l12.95-17.8l-12.3-17.2h9.2l8.05,11.35l7.9-11.35H171l-12.2,16.9   l13.05,18.1H162.5z"/>
</g>
<g>
</g>
<g>
</g>
<g>
</g>
<g>
</g>
<g>
</g>
<g>
</g>
</svg>